<?xml version="1.0" standalone="no"?>
<!DOCTYPE svg PUBLIC "-//W3C//DTD SVG 20010904//EN"
 "http://www.w3.org/TR/2001/REC-SVG-20010904/DTD/svg10.dtd">
<svg version="1.0" xmlns="http://www.w3.org/2000/svg"
 width="256.000000pt" height="256.000000pt" viewBox="0 0 256.000000 256.000000"
 preserveAspectRatio="xMidYMid meet">
<metadata>
Created by potrace 1.14, written by Peter Selinger 2001-2017
</metadata>
<g transform="translate(0.000000,256.000000) scale(0.100000,-0.100000)"
fill="#000000" stroke="none">
<path d="M1070 2490 c0 -5 -3 -9 -7 -7 -5 1 -10 -2 -13 -7 -3 -5 3 -10 13 -12
11 -1 22 -5 25 -9 6 -6 -13 -3 -77 10 -14 2 -28 10 -33 17 -4 7 -8 8 -8 3 0
-6 4 -15 10 -21 6 -6 5 -15 -1 -24 -9 -13 -10 -13 -6 2 3 9 -1 19 -9 22 -9 3
-12 1 -9 -4 3 -6 1 -10 -5 -10 -6 0 -9 -4 -6 -9 3 -5 -8 -14 -24 -21 -22 -9
-28 -16 -20 -25 5 -6 7 -15 3 -19 -4 -4 0 -4 8 -1 10 4 16 0 16 -9 0 -8 -4
-13 -9 -10 -13 8 -9 -31 5 -45 10 -10 8 -11 -8 -5 -18 7 -19 6 -5 -11 8 -10
10 -16 3 -12 -6 4 -14 3 -17 -2 -4 -5 -2 -13 4 -16 8 -5 7 -12 -2 -23 -10 -12
-10 -14 0 -8 7 4 12 1 12 -8 0 -9 5 -16 10 -16 7 0 7 6 0 20 -6 11 -7 20 -2
20 18 0 21 -40 4 -51 -15 -9 -14 -10 3 -4 11 4 31 9 45 11 19 3 22 2 10 -6
-13 -9 -8 -14 12 -11 4 0 -2 -15 -13 -34 -12 -19 -25 -32 -30 -29 -5 3 -6 -2
-3 -10 3 -9 10 -16 16 -16 5 0 6 5 2 12 -4 6 -3 8 3 5 6 -4 17 1 24 10 10 12
10 14 2 9 -15 -8 -17 3 -3 24 5 8 12 11 16 8 4 -4 14 -3 23 2 13 6 17 4 17
-10 0 -10 -5 -16 -11 -12 -19 12 -34 10 -28 -4 3 -8 10 -11 17 -7 6 3 7 2 3
-3 -5 -5 -13 -10 -18 -10 -22 -3 -23 -5 -9 -15 13 -9 13 -10 0 -8 -19 3 -52
-11 -63 -25 -5 -7 -7 -6 -6 4 4 36 -1 44 -14 25 -9 -12 -19 -15 -28 -10 -11 7
-11 5 1 -10 8 -10 10 -16 3 -12 -6 4 -14 3 -18 -3 -4 -6 -10 -8 -15 -5 -5 3
-14 -3 -20 -12 -11 -17 -11 -17 -6 0 3 9 1 17 -4 17 -9 0 -13 -12 -12 -30 1
-13 -44 -5 -56 9 -10 13 -10 11 -1 -14 5 -16 7 -26 3 -22 -4 4 -14 1 -23 -6
-14 -11 -14 -10 -2 6 13 16 12 18 -12 13 -37 -7 -47 -14 -40 -31 4 -11 1 -13
-13 -8 -13 5 -15 3 -9 -8 5 -8 -2 -5 -16 6 -13 11 -18 13 -11 5 17 -19 15 -35
-2 -21 -10 8 -16 9 -21 1 -3 -6 -11 -8 -16 -5 -5 3 -6 -2 -2 -11 5 -13 3 -15
-8 -9 -12 7 -12 6 -1 -7 9 -11 10 -18 2 -23 -6 -3 -7 -12 -3 -18 4 -8 1 -7 -9
1 -19 15 -34 0 -22 -20 5 -9 2 -8 -9 1 -16 13 -16 14 -1 26 14 9 14 14 4 20
-9 6 -11 4 -5 -5 6 -10 4 -12 -8 -7 -12 4 -15 1 -12 -14 3 -14 0 -19 -9 -16
-7 3 -13 -1 -13 -8 0 -7 6 -11 13 -8 6 2 14 0 18 -5 6 -10 -24 -10 -40 0 -5 4
-16 2 -24 -4 -12 -8 -12 -9 3 -4 18 6 24 -9 7 -19 -6 -4 -8 -10 -5 -15 3 -5 1
-11 -4 -15 -6 -3 -8 3 -6 14 3 14 -1 18 -17 13 -11 -2 -15 -8 -10 -11 8 -5 13
-61 5 -61 -1 0 -7 10 -14 21 -9 17 -8 20 3 13 11 -6 11 -5 -1 9 -14 18 -26 24
-17 8 3 -5 -1 -14 -9 -21 -17 -14 -21 -55 -5 -45 6 3 10 1 10 -4 0 -16 -10
-14 -34 7 -20 16 -20 16 -7 0 7 -10 10 -18 5 -18 -5 0 -2 -5 6 -10 12 -8 10
-10 -8 -10 -13 0 -21 -4 -18 -9 3 -5 -1 -12 -10 -15 -10 -4 -14 -14 -11 -26 4
-17 2 -18 -14 -10 -15 8 -17 7 -13 -5 4 -8 10 -15 15 -15 4 0 -3 -12 -16 -26
-14 -15 -22 -30 -20 -35 3 -4 1 -10 -5 -14 -6 -4 -8 -10 -5 -15 3 -5 -7 -7
-22 -4 l-28 4 25 -16 c23 -14 24 -15 3 -11 -12 3 -22 2 -21 -2 2 -19 -4 -24
-13 -11 -9 13 -10 13 -6 0 4 -15 8 -15 37 -7 8 2 12 2 7 0 -4 -3 -4 -10 0 -16
3 -7 3 -9 -2 -5 -11 11 -47 -11 -39 -24 4 -6 8 -23 9 -38 2 -21 -1 -27 -12
-23 -12 5 -12 7 -1 14 10 7 9 9 -4 9 -21 0 -23 -11 -6 -28 17 -17 18 -39 2
-39 -11 0 -11 3 -1 15 11 13 9 14 -11 1 -12 -8 -18 -15 -12 -17 6 -2 4 -14 -4
-30 -12 -23 -12 -30 0 -47 20 -27 17 -41 -3 -18 -10 10 -14 13 -9 6 5 -9 4
-13 -5 -13 -8 0 -5 -6 7 -15 10 -8 15 -15 10 -15 -5 0 -3 -7 4 -16 8 -8 9 -14
4 -13 -20 3 -31 -2 -31 -16 0 -11 4 -12 13 -4 8 7 14 6 20 -2 4 -7 3 -10 -2
-7 -5 3 -15 0 -22 -8 -7 -8 -9 -14 -3 -14 5 0 11 -7 14 -14 4 -10 1 -13 -7
-10 -7 3 -13 -2 -13 -10 0 -8 4 -13 8 -11 4 3 9 -2 12 -10 4 -9 1 -12 -9 -8
-7 3 -14 0 -14 -6 0 -6 5 -11 11 -11 8 0 8 -4 0 -14 -8 -10 -9 -16 -1 -21 5
-3 10 -11 10 -16 0 -6 -4 -8 -8 -5 -5 3 -9 -1 -9 -9 0 -8 7 -15 14 -15 8 0 11
4 8 10 -3 6 -1 10 4 10 16 0 13 -16 -4 -30 -11 -9 -12 -16 -5 -25 5 -6 7 -15
3 -18 -3 -4 -1 -7 6 -7 7 0 10 -4 6 -9 -3 -5 -1 -12 4 -16 10 -5 7 27 -3 43
-3 5 1 9 8 9 8 0 12 -10 10 -24 -1 -13 5 -27 14 -33 10 -5 12 -10 6 -10 -14 0
-14 -33 0 -43 7 -6 6 -7 -4 -4 -9 2 -15 15 -14 30 1 22 -2 25 -17 16 -24 -12
-25 -21 -2 -12 11 4 14 3 9 -5 -10 -17 15 -51 33 -44 14 5 14 4 1 -10 -8 -9
-18 -14 -22 -12 -4 2 -10 0 -13 -6 -4 -6 -3 -9 2 -8 4 2 9 -1 10 -6 1 -5 16
-16 34 -24 l32 -16 -29 -14 c-22 -10 -24 -12 -6 -8 18 3 22 1 18 -10 -3 -9 -1
-12 4 -9 7 4 9 -3 6 -19 -3 -19 1 -29 17 -38 12 -7 25 -12 29 -13 3 0 10 -4
15 -9 5 -5 3 -6 -4 -2 -9 5 -12 -1 -11 -21 2 -39 7 -46 24 -32 14 11 18 3 17
-37 0 -6 6 -11 13 -11 10 0 10 5 2 21 -8 17 -8 19 2 9 7 -7 14 -24 14 -39 1
-15 8 -29 16 -32 12 -3 13 -2 1 6 -8 6 -9 12 -3 16 12 7 25 -22 15 -36 -3 -7
-1 -8 5 -4 7 4 12 2 12 -3 0 -6 -5 -11 -12 -11 -6 0 -8 -3 -4 -7 4 -5 14 1 23
12 15 19 15 19 8 -5 -7 -22 -6 -23 9 -11 11 9 16 10 16 2 0 -7 5 -9 12 -5 7 4
8 3 4 -5 -4 -6 -11 -9 -16 -6 -12 7 -6 -23 7 -36 7 -7 12 -6 16 5 4 11 1 13
-11 9 -18 -7 -17 -5 9 15 14 10 16 9 15 -15 -1 -16 5 -28 14 -30 12 -4 12 -3
1 5 -7 5 -9 12 -4 15 5 3 15 -3 22 -15 7 -11 9 -18 4 -15 -5 3 -15 2 -23 -3
-11 -7 -6 -8 15 -7 22 2 33 -3 41 -18 7 -13 7 -22 0 -27 -5 -4 2 -10 17 -13
15 -4 24 -11 21 -17 -3 -5 3 -4 14 3 12 7 18 17 15 23 -3 5 -1 6 6 2 6 -4 9
-11 6 -16 -8 -13 6 -41 19 -37 6 2 19 0 30 -5 13 -7 16 -7 12 1 -5 7 -1 9 8 5
9 -3 13 -10 10 -15 -3 -5 2 -9 10 -9 8 0 20 -8 25 -17 6 -10 11 -12 11 -5 0
14 26 16 35 2 3 -6 -1 -7 -9 -4 -9 3 -16 1 -16 -6 0 -6 4 -9 9 -5 6 3 13 -1
18 -9 7 -12 10 -12 23 2 13 14 12 15 -2 10 -12 -5 -15 -2 -11 13 5 18 6 18 18
2 7 -9 11 -23 8 -29 -5 -14 22 -13 34 1 4 4 2 5 -6 0 -10 -5 -12 -4 -7 4 4 6
12 9 17 5 5 -3 7 -9 4 -14 -3 -4 2 -11 11 -14 9 -3 12 -11 8 -18 -5 -9 -3 -9
9 1 16 12 22 8 18 -12 -1 -5 3 -6 9 -2 6 3 7 11 4 17 -4 6 -2 8 4 4 6 -3 14
-1 18 5 5 9 0 10 -14 7 -12 -4 -20 -3 -17 2 3 4 14 10 26 13 11 3 18 3 15 0
-3 -4 1 -14 10 -24 15 -17 15 -18 -5 -14 -11 2 -21 0 -21 -6 0 -10 28 -8 47 4
6 4 15 2 19 -4 5 -8 3 -9 -7 -4 -8 5 -10 4 -6 0 10 -12 38 -15 31 -4 -10 16 8
10 21 -8 9 -13 14 -13 20 -3 5 9 4 11 -3 6 -7 -4 -12 -3 -12 3 0 5 5 13 10 16
5 3 10 1 10 -4 0 -6 7 -11 16 -11 9 0 13 5 9 13 -4 6 2 2 13 -10 22 -25 39
-19 19 6 -10 14 -10 14 5 3 9 -7 18 -9 20 -5 3 4 3 2 1 -5 -1 -8 3 -12 9 -9 7
2 12 10 10 16 -1 7 2 10 8 6 6 -3 8 -10 5 -15 -3 -4 1 -10 9 -13 10 -4 12 1 9
16 -4 22 -4 22 9 2 13 -20 45 -35 33 -16 -3 6 5 15 17 22 21 11 22 11 9 -5
-12 -14 -12 -16 4 -10 13 5 16 4 11 -4 -4 -7 -2 -12 4 -12 6 0 10 7 8 17 -2
12 5 17 29 19 26 2 31 -1 26 -14 -4 -15 -3 -15 6 -2 10 13 12 13 21 0 8 -12
10 -12 10 -1 0 11 3 11 18 0 14 -11 15 -11 5 1 -21 23 -15 35 8 14 15 -14 20
-15 17 -4 -2 8 3 14 10 12 6 -1 12 3 12 9 0 8 4 8 14 0 10 -9 16 -9 21 -1 4 6
4 14 1 17 -3 4 -6 1 -6 -6 0 -7 -4 -9 -10 -6 -5 3 -10 11 -10 16 0 6 5 7 10 4
6 -3 10 0 10 7 0 8 5 6 11 -5 8 -14 14 -16 25 -6 11 9 14 9 14 -1 0 -8 3 -10
7 -7 3 4 -2 17 -13 29 -10 13 -12 17 -4 10 20 -17 30 -15 24 6 -5 14 -4 14 4
2 6 -8 8 -18 6 -22 -3 -4 0 -8 5 -8 10 0 16 29 12 53 -1 5 3 6 9 2 6 -3 8 -11
5 -16 -4 -5 -3 -9 2 -10 4 0 16 -2 26 -4 9 -2 15 1 11 6 -5 8 17 14 39 10 5
-1 6 3 2 9 -3 6 -11 7 -17 4 -7 -4 -8 -2 -4 4 4 6 14 8 24 5 15 -6 15 -5 3 10
-12 16 -12 17 5 10 17 -6 18 -5 4 13 -14 17 -14 18 2 6 10 -8 14 -20 11 -30
-6 -14 -5 -15 9 -2 8 8 14 20 11 26 -3 7 5 10 21 7 30 -6 57 12 50 32 -3 7 0
16 7 21 8 4 10 3 5 -4 -4 -7 -3 -12 2 -12 17 0 22 13 9 28 -11 13 -9 14 13 2
23 -12 24 -12 11 4 -12 14 -12 16 3 10 18 -7 19 14 1 29 -6 5 -4 7 5 4 8 -2
14 -10 12 -16 -3 -15 7 -14 25 4 8 8 19 13 24 9 5 -3 9 -2 8 3 -1 4 -1 14 0
22 1 11 4 11 18 0 15 -13 15 -12 3 11 -12 22 -12 24 2 12 14 -11 16 -9 14 18
-1 17 2 34 7 37 6 3 7 2 4 -3 -3 -6 -2 -16 4 -24 7 -12 9 -11 10 5 1 11 0 27
-1 35 -1 11 3 9 15 -5 9 -11 14 -14 10 -7 -3 6 1 15 9 18 9 3 16 11 16 16 0 6
-6 6 -14 -1 -11 -9 -16 -9 -22 0 -4 8 -3 9 5 5 6 -4 14 0 17 9 5 12 9 13 20 4
8 -7 17 -9 21 -5 3 3 2 6 -4 6 -6 0 -13 9 -16 19 -3 14 -1 18 9 14 8 -3 11
-10 7 -17 -3 -6 -2 -8 2 -3 14 12 17 49 3 41 -7 -4 -8 -3 -4 5 4 6 12 9 17 6
5 -4 17 -1 26 5 17 11 17 11 1 6 -22 -6 -22 2 -3 28 12 15 12 23 3 35 -7 9 -2
7 11 -4 l24 -20 -11 21 c-6 12 -7 26 -2 34 5 8 6 18 3 24 -4 5 -1 6 7 1 10 -6
12 -4 6 10 -5 14 -4 16 7 7 14 -12 27 -6 27 12 0 6 -5 4 -11 -4 -8 -12 -9 -12
-7 5 1 11 -2 27 -7 35 -7 13 -6 13 7 2 11 -9 18 -10 23 -2 3 5 0 10 -7 10 -7
1 -2 7 12 14 14 8 29 12 34 9 5 -4 6 -1 2 5 -4 6 -13 9 -20 6 -7 -3 -19 3 -27
13 -13 16 -12 17 2 5 13 -10 19 -9 30 4 17 20 20 44 7 44 -6 0 -8 -7 -4 -15 8
-22 -2 -18 -14 5 -6 11 -7 20 -3 19 31 -5 38 10 19 40 -6 9 -5 12 1 8 6 -4 13
0 17 8 3 8 -3 19 -12 24 -16 10 -16 10 0 11 9 0 20 5 24 11 4 8 -1 9 -17 4
l-24 -8 25 22 c14 13 19 20 13 16 -12 -5 -15 1 -12 21 0 4 -5 11 -13 16 -10 8
-10 9 2 5 8 -2 14 -10 12 -16 -1 -7 2 -10 8 -6 12 7 -3 41 -22 48 -8 3 -6 6 5
6 10 1 15 6 12 11 -4 6 -12 7 -18 3 -7 -4 -6 0 2 10 11 14 11 17 0 17 -11 0
-11 2 1 10 8 5 12 10 8 10 -4 0 -3 11 2 25 7 19 6 23 -4 19 -8 -3 -17 0 -21 6
-3 6 -3 10 2 9 18 -3 33 2 33 11 0 5 -6 7 -13 4 -8 -3 -14 2 -14 10 0 8 4 13
9 10 4 -3 8 0 8 5 0 6 -4 11 -10 11 -5 0 -10 5 -10 11 0 5 4 8 8 5 5 -3 9 2 9
10 0 9 -6 13 -16 9 -11 -3 -9 0 4 11 20 16 20 16 -4 9 -15 -5 -21 -3 -17 3 3
6 1 12 -6 15 -7 2 -3 2 9 1 12 -2 25 1 28 6 4 6 3 10 -2 9 -17 -3 -33 1 -31 9
5 15 -25 71 -35 65 -6 -4 -7 -1 -3 6 5 7 14 10 22 7 8 -3 14 -1 14 4 0 6 -7
10 -16 10 -9 0 -12 5 -8 13 5 8 2 7 -9 -2 -10 -8 -20 -11 -24 -7 -3 3 -1 6 5
6 7 0 12 7 12 16 0 8 4 13 8 10 5 -3 9 1 9 9 0 8 -4 15 -9 15 -4 0 -8 -5 -8
-11 0 -6 -6 -9 -12 -6 -7 2 -12 14 -10 27 3 16 0 20 -10 14 -7 -4 -10 -4 -6 1
4 4 2 15 -5 24 -10 14 -10 14 5 3 12 -10 18 -10 24 -1 4 8 3 9 -5 5 -17 -11
-25 22 -10 41 8 9 9 14 3 10 -7 -4 -14 3 -16 18 -4 20 -3 23 8 14 11 -9 14 -8
14 0 0 7 4 10 9 7 5 -3 12 1 15 10 3 8 10 13 15 9 6 -3 8 3 6 14 -4 23 19 48
30 31 3 -6 11 -7 17 -4 6 4 8 2 4 -4 -6 -11 19 -42 35 -42 5 0 9 5 9 12 0 6
10 3 22 -8 16 -14 15 -9 -7 21 -28 38 -28 39 -4 17 26 -23 42 -21 32 4 -3 9 2
14 14 14 27 0 59 35 42 46 -8 5 -10 3 -4 -6 5 -9 4 -11 -4 -6 -17 11 -4 25 19
19 11 -3 17 -10 13 -16 -3 -6 -1 -7 5 -3 6 4 9 13 5 21 -3 11 -1 13 10 9 8 -3
18 -1 22 5 3 6 0 9 -8 5 -8 -3 -18 -1 -22 5 -3 6 1 11 9 11 11 0 16 9 16 28 0
15 6 34 13 41 10 11 9 12 -2 6 -10 -6 -12 -2 -6 16 7 23 6 23 -8 5 -14 -19
-14 -19 -25 0 -10 19 -12 26 -12 44 0 6 -10 10 -22 10 -12 0 -18 -3 -14 -7 4
-5 12 -8 17 -8 15 0 10 -19 -6 -21 -8 -1 -13 2 -10 6 3 5 1 11 -4 15 -6 3 -8
12 -4 20 3 8 0 15 -7 15 -6 0 -9 4 -6 8 2 4 1 14 -5 22 -6 11 -9 12 -9 2 0 -7
-4 -10 -10 -7 -5 3 -10 1 -10 -5 0 -7 7 -9 18 -5 14 5 15 4 5 -6 -21 -21 -40
5 -22 27 9 12 10 15 2 10 -8 -4 -13 -2 -13 4 0 7 -7 10 -15 7 -8 -4 -17 -2
-20 4 -4 5 -10 7 -14 4 -5 -2 -8 3 -8 13 0 33 -3 42 -14 42 -5 0 -7 -4 -4 -10
3 -5 2 -10 -4 -10 -16 0 -22 18 -9 23 8 4 4 8 -10 13 -18 5 -22 12 -18 28 5
20 5 21 -9 2 -8 -11 -15 -15 -15 -9 0 6 -9 9 -22 5 -16 -4 -19 -2 -13 8 5 9 4
11 -4 6 -9 -6 -9 -11 -1 -21 8 -9 8 -15 0 -20 -5 -3 -14 4 -19 17 -6 13 -10
17 -10 10 -1 -8 -6 -10 -13 -6 -10 6 -10 4 0 -8 9 -11 10 -18 2 -23 -6 -3 -8
-11 -5 -16 10 -15 -2 -10 -16 8 -12 14 -12 16 0 8 10 -6 12 -4 7 4 -6 9 -12 9
-25 -3 -10 -9 -21 -13 -26 -9 -4 5 0 -4 9 -19 13 -20 14 -28 5 -34 -7 -4 -10
-3 -7 2 3 5 -1 15 -10 23 -13 13 -14 12 -9 -12 7 -27 -6 -46 -19 -26 -5 8 -3
9 6 4 9 -5 11 -4 6 4 -6 9 -14 6 -30 -11 -24 -25 -25 -38 -1 -18 16 13 18 10
9 -14 -3 -9 -11 -13 -17 -9 -6 4 -7 1 -2 -7 4 -7 2 -16 -6 -21 -9 -6 -10 -9
-2 -9 6 0 19 10 27 22 9 12 16 18 16 12 0 -5 -6 -16 -12 -22 -10 -10 -10 -15
2 -23 12 -8 10 -9 -7 -4 -12 3 -24 1 -28 -5 -4 -6 -3 -10 2 -9 27 5 32 -2 16
-20 -13 -16 -21 -18 -37 -9 -16 8 -18 8 -10 -1 6 -7 20 -14 30 -15 10 -2 20
-9 22 -17 2 -9 0 -10 -5 -4 -7 9 -25 11 -63 6 -5 0 -10 -6 -10 -12 0 -8 5 -8
15 1 10 9 15 9 15 1 0 -6 -5 -11 -11 -11 -8 0 -7 -6 2 -17 13 -16 12 -17 -3
-4 -15 11 -18 11 -18 0 0 -11 -2 -11 -9 1 -6 8 -7 18 -4 23 3 4 -1 7 -8 6 -23
-4 -49 12 -49 30 0 12 5 10 20 -9 15 -19 20 -21 20 -9 0 9 -7 20 -16 23 -8 3
-13 10 -9 15 3 5 1 13 -5 16 -6 4 -9 1 -8 -7 2 -8 -5 -12 -17 -10 -16 2 -17 1
-5 -7 12 -8 11 -10 -7 -8 -12 0 -19 6 -15 12 3 5 8 18 9 28 3 17 2 17 -13 3
-8 -9 -18 -16 -22 -16 -13 1 -57 29 -46 30 17 0 24 37 8 37 -7 0 -11 -4 -8 -9
3 -4 -4 -8 -15 -8 -12 0 -21 4 -21 10 0 5 -7 6 -17 3 -12 -5 -14 -3 -8 7 6 10
4 12 -9 7 -12 -5 -16 -3 -13 5 2 7 10 12 16 10 7 -1 10 2 6 8 -4 7 -13 5 -27
-4 -11 -8 -27 -12 -34 -9 -15 5 -9 23 7 23 6 0 7 -5 3 -12 -4 -7 -3 -8 5 -4
15 10 3 29 -14 22 -8 -3 -16 0 -19 7 -2 7 -5 5 -5 -5 -1 -9 -6 -20 -13 -24 -7
-4 -8 -3 -4 4 7 12 -1 15 -36 15 -10 0 -15 3 -13 7 3 4 -2 11 -11 14 -8 3 -12
10 -9 16 4 6 11 7 17 4 7 -4 8 -2 4 5 -12 19 -38 -8 -31 -33 5 -19 5 -19 -5
-3 -12 19 -35 13 -24 -6 4 -7 3 -8 -2 -4 -5 5 -9 14 -9 20 -1 7 -7 11 -14 9
-7 -1 -10 2 -6 8 3 6 -4 14 -17 19 -18 8 -19 10 -5 10 10 1 15 6 12 11 -4 6
-11 8 -16 5 -5 -3 -6 2 -2 11 5 13 3 15 -7 9 -9 -6 -11 -4 -5 4 5 9 12 7 27
-8 10 -12 16 -26 12 -33 -5 -7 -3 -8 6 -3 8 5 11 4 6 -3 -3 -6 -2 -13 3 -17
12 -7 6 32 -7 49 -6 7 -1 18 11 30 16 15 19 16 14 4 -3 -10 1 -19 10 -22 10
-4 14 -2 10 8 -3 8 2 20 11 28 15 11 15 11 5 -3 -10 -13 -10 -16 2 -16 8 0 12
4 9 8 -2 4 0 10 5 14 6 3 7 13 4 22 -4 11 -3 14 5 9 8 -5 10 -2 6 8 -3 9 -10
16 -15 16 -12 0 -8 51 5 68 5 7 5 12 0 11 -21 -4 -22 3 -8 36 17 41 17 45 4
45 -6 0 -9 -3 -9 -7 3 -20 -2 -33 -12 -33 -8 0 -8 4 0 14 9 11 9 15 -1 19 -10
4 -10 6 0 6 26 2 11 28 -15 27 -16 -1 -37 7 -48 17 -11 10 -21 13 -23 7 -2 -5
-18 -10 -35 -10 -30 0 -30 -1 -11 -16 18 -14 17 -14 -6 -2 -14 7 -28 12 -32
13 -3 0 -10 3 -14 7 -3 4 3 6 14 3 12 -2 25 1 28 7 4 7 2 8 -4 4 -7 -4 -12 -1
-12 6 0 10 -2 10 -9 0 -4 -8 -12 -14 -17 -15 -5 -1 -8 -8 -6 -14 5 -22 -8 -14
-18 10 -6 15 -9 17 -9 6 -1 -9 -7 -22 -15 -28 -11 -9 -15 -8 -20 4 -4 12 -10
14 -25 5 -14 -7 -22 -7 -27 2 -4 7 -3 8 4 4 8 -5 10 -1 5 9 -4 12 -8 13 -13 5
-10 -15 -21 -15 -32 2 -8 10 -9 10 -5 -2 2 -8 11 -13 18 -12 8 2 10 0 6 -5 -5
-4 -12 -8 -15 -8 -4 0 -14 -4 -22 -10 -12 -7 -13 -6 -3 6 8 9 9 20 3 29 -8 13
-10 12 -10 -2 0 -11 -6 -15 -19 -11 -12 3 -17 11 -14 19 3 8 2 14 -1 14 -3 0
-6 -4 -6 -10z m350 -42 c10 -21 10 -21 -3 -6 -8 10 -17 15 -20 11 -4 -3 -7 -1
-7 5 0 20 19 13 30 -10z m50 -2 c0 -3 -4 -8 -10 -11 -5 -3 -10 -1 -10 4 0 6 5
11 10 11 6 0 10 -2 10 -4z m-545 -184 c-3 -3 -11 0 -18 7 -9 10 -8 11 6 5 10
-3 15 -9 12 -12z m571 -22 c0 -12 -4 -16 -9 -11 -5 5 -6 14 -3 20 10 15 12 14
12 -9z m559 -100 c-3 -5 -1 -10 4 -10 6 0 11 -5 11 -11 0 -8 -5 -8 -15 1 -13
11 -12 30 1 30 3 0 2 -4 -1 -10z m-1001 -18 c3 -5 -1 -9 -9 -9 -8 0 -12 4 -9
9 3 4 7 8 9 8 2 0 6 -4 9 -8z m-131 -37 c-3 -9 -8 -14 -10 -11 -3 3 -2 9 2 15
9 16 15 13 8 -4z m701 -63 c3 -5 -1 -9 -9 -9 -8 0 -12 4 -9 9 3 4 7 8 9 8 2 0
6 -4 9 -8z m-904 -12 c0 -5 -8 -10 -17 -10 -15 0 -16 2 -3 10 19 12 20 12 20
0z m-93 -60 c-1 -11 -5 -20 -9 -20 -10 0 -10 4 -2 24 8 22 13 20 11 -4z m1363
-10 c0 -5 -5 -10 -11 -10 -5 0 -7 5 -4 10 3 6 8 10 11 10 2 0 4 -4 4 -10z
m460 -14 c0 -3 -4 -8 -10 -11 -5 -3 -10 -1 -10 4 0 6 5 11 10 11 6 0 10 -2 10
-4z m-40 -86 c0 -5 -2 -10 -4 -10 -3 0 -8 5 -11 10 -3 6 -1 10 4 10 6 0 11 -4
11 -10z m-36 -51 c-8 -14 -21 -11 -21 5 0 8 6 12 14 9 7 -3 10 -9 7 -14z
m-1957 -14 c0 -8 -4 -15 -9 -15 -10 0 -11 14 -1 23 9 10 10 9 10 -8z m1873
-40 c0 -12 -19 -12 -23 0 -4 9 -1 12 9 8 7 -3 14 -7 14 -8z m-105 -5 c-12 -19
-41 -29 -56 -18 -11 8 -11 9 4 4 9 -3 17 -1 17 5 0 6 5 7 10 4 6 -3 10 -1 10
4 0 6 5 11 11 11 5 0 7 -4 4 -10z m-1795 -44 c0 -3 -4 -8 -10 -11 -5 -3 -10
-1 -10 4 0 6 5 11 10 11 6 0 10 -2 10 -4z m1733 -51 c-7 -21 -12 -19 -10 4 0
11 5 18 9 15 4 -3 5 -11 1 -19z m-1868 -187 c5 4 5 1 1 -6 -6 -10 -11 -10 -22
-1 -8 6 -14 14 -14 16 0 3 6 0 13 -6 8 -6 18 -7 22 -3z m1944 -25 c6 -12 7
-24 3 -27 -5 -3 -9 0 -9 7 0 7 -4 21 -8 32 -10 25 -2 18 14 -12z m-1998 -107
c-9 -11 -9 -15 1 -18 7 -3 3 -7 -9 -10 -20 -5 -21 -4 -11 18 6 13 16 24 21 24
5 0 4 -6 -2 -14z m2040 -263 c13 -16 12 -17 -3 -4 -17 13 -22 21 -14 21 2 0
10 -8 17 -17z m-2054 -40 c0 -9 -4 -10 -14 -2 -7 6 -13 12 -13 14 0 1 6 2 13
2 8 0 14 -6 14 -14z m2048 -73 c-3 -5 -12 -10 -18 -10 -7 0 -6 4 3 10 19 12
23 12 15 0z m-11 -69 c-2 -3 -12 3 -22 13 -16 17 -16 18 5 5 12 -7 20 -15 17
-18z m-14 -37 c0 -2 -7 -4 -15 -4 -8 0 -15 4 -15 10 0 5 7 7 15 4 8 -4 15 -8
15 -10z m-1966 -65 c-3 -5 -10 -7 -15 -3 -5 3 -7 10 -3 15 3 5 10 7 15 3 5 -3
7 -10 3 -15z m60 -128 c4 -5 -3 -7 -14 -4 -23 6 -26 13 -6 13 8 0 17 -4 20 -9z
m39 -58 c3 -5 -1 -14 -8 -20 -11 -10 -13 -9 -12 7 1 20 12 26 20 13z m102
-111 c-3 -3 -11 0 -18 7 -9 10 -8 11 6 5 10 -3 15 -9 12 -12z m1490 -72 c-3
-5 -12 -10 -18 -10 -7 0 -6 4 3 10 19 12 23 12 15 0z m-1337 -82 c-2 -7 4 -12
12 -13 8 0 16 -9 17 -20 l3 -20 -9 20 c-5 11 -10 14 -10 8 -1 -7 -6 -13 -12
-13 -5 0 -8 4 -4 9 3 5 1 12 -5 16 -6 4 -8 11 -5 16 9 13 15 11 13 -3z m1183
-11 c-10 -9 -11 -8 -5 6 3 10 9 15 12 12 3 -3 0 -11 -7 -18z m34 -18 c-4 -5
-12 -9 -18 -8 -9 0 -8 2 1 6 6 2 9 10 6 15 -4 7 -2 8 5 4 6 -4 9 -12 6 -17z
m-1118 -35 c0 -10 -10 -11 -35 -5 -2 1 -1 5 2 9 8 13 33 10 33 -4z m962 -40
c-6 -8 -15 -12 -18 -8 -3 4 0 9 7 11 6 3 9 10 6 15 -4 7 -2 8 5 4 9 -6 9 -11
0 -22z m-874 4 c4 -3 2 -9 -3 -12 -5 -3 -15 1 -21 8 -10 11 -9 14 3 12 9 -1
18 -5 21 -8z m148 -65 c-3 -7 -9 -10 -14 -7 -14 8 -11 21 5 21 8 0 12 -6 9
-14z m497 7 c0 -5 -5 -10 -11 -10 -5 0 -7 5 -4 10 3 6 8 10 11 10 2 0 4 -4 4
-10z m60 1 c0 -4 -9 -12 -19 -18 -15 -10 -20 -9 -25 2 -3 10 0 12 11 8 10 -4
14 -2 10 4 -3 5 0 10 8 10 8 0 15 -3 15 -6z m-220 -41 c0 -5 -5 -10 -11 -10
-5 0 -7 5 -4 10 3 6 8 10 11 10 2 0 4 -4 4 -10z"/>
<path d="M1198 2493 c7 -3 16 -2 19 1 4 3 -2 6 -13 5 -11 0 -14 -3 -6 -6z"/>
<path d="M995 2480 c3 -5 8 -10 11 -10 2 0 4 5 4 10 0 6 -5 10 -11 10 -5 0 -7
-4 -4 -10z"/>
<path d="M1227 2484 c-8 -8 1 -24 14 -24 5 0 9 7 9 15 0 15 -12 20 -23 9z"/>
<path d="M906 2442 c-3 -5 1 -9 9 -9 8 0 15 4 15 9 0 4 -4 8 -9 8 -6 0 -12 -4
-15 -8z"/>
<path d="M1513 2383 c4 -3 -1 -12 -11 -20 -15 -13 -15 -13 6 -3 19 9 23 30 5
30 -4 0 -3 -3 0 -7z"/>
<path d="M1505 2320 c-3 -6 1 -7 9 -4 18 7 21 14 7 14 -6 0 -13 -4 -16 -10z"/>
<path d="M1505 2290 c-3 -6 1 -7 9 -4 18 7 21 14 7 14 -6 0 -13 -4 -16 -10z"/>
<path d="M946 2192 c-3 -6 -1 -14 5 -17 15 -10 25 3 12 16 -7 7 -13 7 -17 1z"/>
<path d="M2211 2187 c2 -1 13 -9 24 -17 19 -14 19 -14 6 3 -7 9 -18 17 -24 17
-6 0 -8 -1 -6 -3z"/>
<path d="M1436 2167 c3 -10 9 -15 12 -12 3 3 0 11 -7 18 -10 9 -11 8 -5 -6z"/>
<path d="M1447 2121 c-4 -17 -3 -21 5 -13 5 5 8 16 6 23 -3 8 -7 3 -11 -10z"/>
<path d="M2266 2121 c-3 -5 1 -14 9 -21 13 -10 15 -9 15 9 0 21 -14 28 -24 12z"/>
<path d="M1526 2092 c-2 -4 4 -8 14 -8 10 0 16 4 14 8 -3 4 -9 8 -14 8 -5 0
-11 -4 -14 -8z"/>
<path d="M846 2082 c-3 -5 1 -9 9 -9 8 0 15 4 15 9 0 4 -4 8 -9 8 -6 0 -12 -4
-15 -8z"/>
<path d="M1736 1994 c-3 -8 -2 -13 3 -9 5 3 11 -1 14 -7 2 -7 8 -10 12 -6 4 4
1 14 -8 22 -13 14 -16 14 -21 0z"/>
<path d="M2431 1964 c0 -11 3 -14 6 -6 3 7 2 16 -1 19 -3 4 -6 -2 -5 -13z"/>
<path d="M567 1925 c3 -8 9 -12 14 -9 12 7 11 11 -5 17 -10 4 -13 1 -9 -8z"/>
<path d="M2463 1895 c0 -8 4 -12 9 -9 5 3 6 10 3 15 -9 13 -12 11 -12 -6z"/>
<path d="M2205 1750 c-4 -6 -3 -10 2 -9 19 3 27 -2 14 -10 -8 -5 -9 -11 -3
-15 16 -9 22 21 7 34 -9 8 -15 8 -20 0z"/>
<path d="M280 1636 c0 -2 7 -7 16 -10 8 -3 12 -2 9 4 -6 10 -25 14 -25 6z"/>
<path d="M267 1582 c-20 -22 -22 -35 -4 -29 6 2 12 8 12 13 0 5 4 15 8 22 12
18 3 15 -16 -6z"/>
<path d="M2215 1440 c3 -5 8 -10 11 -10 2 0 4 5 4 10 0 6 -5 10 -11 10 -5 0
-7 -4 -4 -10z"/>
<path d="M147 1199 c7 -7 15 -10 18 -7 3 3 -2 9 -12 12 -14 6 -15 5 -6 -5z"/>
<path d="M2254 1175 c0 -14 4 -25 8 -25 4 0 7 9 5 20 -5 29 -13 33 -13 5z"/>
<path d="M2275 1129 c-4 -6 -5 -12 -2 -15 2 -3 7 2 10 11 7 17 1 20 -8 4z"/>
<path d="M2215 791 c-3 -5 -2 -12 3 -15 5 -3 9 1 9 9 0 17 -3 19 -12 6z"/>
<path d="M220 730 c-12 -7 -10 -9 7 -7 12 0 19 5 17 9 -6 10 -6 10 -24 -2z"/>
<path d="M2163 711 c-10 -16 -9 -22 5 -33 15 -11 15 -11 5 3 -17 21 -5 33 16
16 14 -10 14 -10 4 4 -7 9 -10 19 -6 22 3 4 2 7 -3 7 -5 0 -15 -9 -21 -19z"/>
<path d="M2135 640 c-3 -5 -1 -10 4 -10 6 0 11 5 11 10 0 6 -2 10 -4 10 -3 0
-8 -4 -11 -10z"/>
<path d="M273 605 c0 -8 4 -12 9 -9 5 3 6 10 3 15 -9 13 -12 11 -12 -6z"/>
<path d="M1336 109 c3 -5 9 -7 14 -4 4 3 11 0 13 -5 3 -6 4 -5 3 1 -1 7 -10
13 -19 15 -9 1 -15 -2 -11 -7z"/>
<path d="M1120 100 c-9 -6 -10 -10 -3 -10 6 0 15 5 18 10 8 12 4 12 -15 0z"/>
</g>
</svg>
